# Blender v2.79 (sub 0) OBJ File: 'lateralLamp1.blend'
# www.blender.org
mtllib lateralLamp1.mtl
o Plane
v -0.827850 0.000000 0.827850
v 0.827850 0.000000 0.827850
v -0.827850 0.000000 -0.827850
v 0.827850 0.000000 -0.827850
v -0.827850 0.239382 0.827850
v 0.827850 0.239382 0.827850
v -0.827850 0.239382 -0.827850
v 0.827850 0.239382 -0.827850
v -1.419832 2.948748 1.419832
v 1.419832 2.948748 1.419832
v -1.419832 2.948748 -1.419832
v 1.419832 2.948748 -1.419832
v -1.419832 3.101082 1.419832
v 1.419832 3.101082 1.419832
v -1.419832 3.101082 -1.419832
v 1.419832 3.101082 -1.419832
v -1.829140 3.101082 1.829140
v 1.829140 3.101082 1.829140
v -1.829140 3.101082 -1.829140
v 1.829140 3.101082 -1.829140
v -1.829140 3.226431 1.829140
v 1.829140 3.226431 1.829140
v -1.829140 3.226431 -1.829140
v 1.829140 3.226431 -1.829140
v -1.829140 3.226431 1.829140
v 1.829140 3.226431 1.829140
v -1.829140 3.226431 -1.829140
v 1.829140 3.226431 -1.829140
v -0.141736 4.072537 0.141736
v 0.141736 4.072537 0.141736
v -0.141736 4.072537 -0.141736
v 0.141736 4.072537 -0.141736
v 0.185704 4.155507 0.000000
v 0.167525 4.155507 0.037749
v 0.126677 4.155507 0.047072
v 0.093920 4.155507 0.020949
v 0.093920 4.155507 -0.020949
v 0.126677 4.155507 -0.047072
v 0.167525 4.155507 -0.037749
v 0.133999 4.291203 0.000000
v 0.118458 4.273964 0.037749
v 0.089574 4.245080 0.047072
v 0.066411 4.221918 0.020949
v 0.066411 4.221918 -0.020949
v 0.089574 4.245080 -0.047072
v 0.118458 4.273964 -0.037749
v 0.000000 4.341210 0.000000
v 0.000000 4.323031 0.037749
v 0.000000 4.282184 0.047072
v 0.000000 4.249426 0.020949
v 0.000000 4.249426 -0.020949
v 0.000000 4.282184 -0.047072
v 0.000000 4.323031 -0.037749
v -0.131313 4.286819 0.000000
v -0.118458 4.273964 0.037749
v -0.089574 4.245080 0.047072
v -0.066411 4.221918 0.020949
v -0.066411 4.221918 -0.020949
v -0.089574 4.245080 -0.047072
v -0.118458 4.273964 -0.037749
v -0.185704 4.155507 0.000000
v -0.167525 4.155507 0.037749
v -0.126677 4.155507 0.047072
v -0.093920 4.155507 0.020949
v -0.093920 4.155507 -0.020949
v -0.126677 4.155507 -0.047072
v -0.167525 4.155507 -0.037749
v -0.131313 4.024194 -0.000000
v -0.118458 4.037049 0.037749
v -0.089574 4.065932 0.047072
v -0.066411 4.089095 0.020949
v -0.066411 4.089095 -0.020949
v -0.089574 4.065932 -0.047072
v -0.118458 4.037049 -0.037749
v 0.000000 3.969803 0.000000
v 0.000000 3.987981 0.037749
v 0.000000 4.028829 0.047072
v 0.000000 4.061587 0.020949
v 0.000000 4.061587 -0.020949
v 0.000000 4.028829 -0.047072
v 0.000000 3.987981 -0.037749
v 0.131313 4.024194 -0.000000
v 0.118458 4.037048 0.037749
v 0.089574 4.065932 0.047072
v 0.066411 4.089095 0.020949
v 0.066411 4.089095 -0.020949
v 0.089574 4.065932 -0.047072
v 0.118458 4.037048 -0.037749
v -0.007926 4.130083 -0.008749
v 0.030163 4.148425 -0.008749
v 0.039570 4.189641 -0.008749
v 0.013212 4.222693 -0.008749
v -0.029064 4.222693 -0.008749
v -0.055423 4.189641 -0.008749
v -0.046015 4.148425 -0.008749
v -0.007926 4.184964 -0.141245
v 0.030163 4.197934 -0.128274
v 0.039570 4.227078 -0.099130
v 0.013212 4.250450 -0.075759
v -0.029064 4.250450 -0.075759
v -0.055423 4.227078 -0.099130
v -0.046015 4.197934 -0.128274
v -0.007926 4.317459 -0.196126
v 0.030163 4.317459 -0.177783
v 0.039570 4.317459 -0.136567
v 0.013212 4.317459 -0.103515
v -0.029064 4.317459 -0.103515
v -0.055423 4.317459 -0.136567
v -0.046015 4.317459 -0.177783
v -0.007926 4.449954 -0.141244
v 0.030163 4.436984 -0.128274
v 0.039570 4.407840 -0.099130
v 0.013212 4.384468 -0.075759
v -0.029064 4.384468 -0.075759
v -0.055423 4.407840 -0.099130
v -0.046015 4.436984 -0.128274
v -0.007926 4.504835 -0.008750
v 0.030163 4.486492 -0.008749
v 0.039570 4.445276 -0.008749
v 0.013212 4.412224 -0.008749
v -0.029064 4.412224 -0.008749
v -0.055423 4.445276 -0.008749
v -0.046015 4.486492 -0.008749
v -0.007926 4.449954 0.123746
v 0.030163 4.436984 0.110775
v 0.039570 4.407840 0.081631
v 0.013212 4.384468 0.058260
v -0.029064 4.384468 0.058260
v -0.055423 4.407840 0.081631
v -0.046015 4.436984 0.110775
v -0.007926 4.317459 0.178627
v 0.030163 4.317459 0.160284
v 0.039570 4.317459 0.119068
v 0.013212 4.317459 0.086016
v -0.029064 4.317459 0.086016
v -0.055423 4.317459 0.119068
v -0.046015 4.317459 0.160284
v -0.007926 4.184964 0.123746
v 0.030163 4.197934 0.110775
v 0.039570 4.227078 0.081631
v 0.013212 4.250450 0.058260
v -0.029064 4.250450 0.058260
v -0.055423 4.227078 0.081631
v -0.046015 4.197934 0.110775
v -3.805783 4.502249 0.698324
v -3.805783 5.400322 0.698324
v -3.805783 4.502249 -0.722735
v -3.805783 5.400322 -0.722735
v 8.349964 4.502249 0.698324
v 8.349964 5.400322 0.698324
v 8.349964 4.502249 -0.722735
v 8.349964 5.400322 -0.722735
v 0.827850 0.239382 -0.827850
v -0.827850 0.239382 -0.827850
v -1.419832 2.948748 -1.419832
v 1.419832 2.948748 -1.419832
v -0.827850 0.239382 0.827850
v 0.827850 0.239382 0.827850
v 1.419832 2.948748 1.419832
v -1.419832 2.948748 1.419832
v 0.827850 0.239382 0.827850
v 0.827850 0.239382 -0.827850
v 1.419832 2.948748 -1.419832
v 1.419832 2.948748 1.419832
v -0.827850 0.239382 -0.827850
v -0.827850 0.239382 0.827850
v -1.419832 2.948748 1.419832
v -1.419832 2.948748 -1.419832
v 0.652032 0.527089 -0.890713
v -0.652032 0.527089 -0.890713
v -1.118289 2.661042 -1.356970
v 1.118289 2.661042 -1.356970
v -0.652032 0.527089 0.890713
v 0.652032 0.527089 0.890713
v 1.118289 2.661042 1.356970
v -1.118289 2.661042 1.356970
v 0.890713 0.527089 0.652032
v 0.890713 0.527089 -0.652032
v 1.356970 2.661042 -1.118289
v 1.356970 2.661042 1.118289
v -0.890713 0.527089 -0.652032
v -0.890713 0.527089 0.652032
v -1.356970 2.661042 1.118289
v -1.356970 2.661042 -1.118289
v -0.652032 0.546961 -0.799760
v 0.652032 0.546961 -0.799760
v -1.118289 2.680914 -1.266017
v 1.118289 2.680914 -1.266017
v 0.652032 0.546961 0.799760
v -0.652032 0.546961 0.799760
v 1.118289 2.680914 1.266017
v -1.118289 2.680914 1.266017
v 0.799760 0.546961 -0.652032
v 0.799760 0.546961 0.652032
v 1.266017 2.680914 -1.118289
v 1.266017 2.680914 1.118289
v -0.799760 0.546961 0.652032
v -0.799760 0.546961 -0.652032
v -1.266017 2.680914 1.118289
v -1.266017 2.680914 -1.118289
vn 0.0000 -1.0000 0.0000
vn 0.0000 -0.2135 -0.9770
vn -1.0000 0.0000 0.0000
vn 0.0000 0.0000 -1.0000
vn 0.0000 0.0000 1.0000
vn 1.0000 0.0000 0.0000
vn -0.2135 -0.9770 0.0000
vn -0.4482 0.8939 0.0000
vn 0.0000 1.0000 0.0000
vn 0.0000 0.8939 -0.4482
vn 0.0000 0.8939 0.4482
vn 0.4482 0.8939 0.0000
vn 0.8317 0.3298 0.4468
vn 0.2216 0.0918 0.9708
vn -0.6037 -0.2501 0.7570
vn -0.9239 -0.3827 0.0000
vn -0.6037 -0.2501 -0.7570
vn 0.2216 0.0918 -0.9708
vn 0.8317 0.3298 -0.4468
vn 0.3252 0.8286 0.4557
vn 0.0918 0.2216 0.9708
vn -0.2501 -0.6037 0.7570
vn -0.3827 -0.9239 0.0000
vn -0.2501 -0.6037 -0.7570
vn 0.0918 0.2216 -0.9708
vn 0.3252 0.8286 -0.4557
vn -0.3496 0.8441 0.4065
vn -0.0918 0.2216 0.9708
vn 0.2501 -0.6037 0.7570
vn 0.3827 -0.9239 0.0000
vn 0.2501 -0.6037 -0.7570
vn -0.0918 0.2216 -0.9708
vn -0.3496 0.8441 -0.4065
vn -0.8441 0.3496 0.4065
vn -0.2216 0.0918 0.9708
vn 0.6037 -0.2501 0.7570
vn 0.9239 -0.3827 0.0000
vn 0.6037 -0.2501 -0.7570
vn -0.2216 0.0918 -0.9708
vn -0.8441 0.3496 -0.4065
vn -0.8441 -0.3496 0.4065
vn -0.2216 -0.0918 0.9708
vn 0.6037 0.2501 0.7570
vn 0.9239 0.3827 0.0000
vn 0.6037 0.2501 -0.7570
vn -0.2216 -0.0918 -0.9708
vn -0.8441 -0.3496 -0.4065
vn -0.3496 -0.8441 0.4065
vn -0.0918 -0.2216 0.9708
vn 0.2500 0.6037 0.7570
vn 0.3827 0.9239 0.0000
vn 0.2500 0.6037 -0.7570
vn -0.0918 -0.2216 -0.9708
vn -0.3496 -0.8441 -0.4065
vn 0.3496 -0.8441 0.4065
vn 0.0918 -0.2216 0.9708
vn -0.2501 0.6037 0.7570
vn -0.3827 0.9239 0.0000
vn -0.2500 0.6037 -0.7570
vn 0.0918 -0.2216 -0.9708
vn 0.3496 -0.8441 -0.4065
vn 0.8441 -0.3496 0.4065
vn 0.2216 -0.0918 0.9708
vn -0.6037 0.2501 0.7570
vn -0.9239 0.3827 0.0000
vn -0.6037 0.2501 -0.7570
vn 0.2216 -0.0918 -0.9708
vn 0.8441 -0.3496 -0.4065
vn 0.4065 -0.8441 -0.3496
vn 0.9708 -0.2216 -0.0918
vn 0.7570 0.6037 0.2501
vn 0.0000 0.9239 0.3827
vn -0.7570 0.6037 0.2501
vn -0.9708 -0.2216 -0.0918
vn -0.4065 -0.8441 -0.3496
vn 0.4065 -0.3496 -0.8441
vn 0.9708 -0.0918 -0.2216
vn 0.7570 0.2501 0.6037
vn 0.0000 0.3827 0.9239
vn -0.7570 0.2501 0.6037
vn -0.9708 -0.0918 -0.2216
vn -0.4065 -0.3496 -0.8441
vn 0.4065 0.3496 -0.8441
vn 0.9708 0.0918 -0.2216
vn 0.7570 -0.2501 0.6037
vn 0.0000 -0.3827 0.9239
vn -0.7570 -0.2501 0.6037
vn -0.9708 0.0918 -0.2216
vn -0.4065 0.3496 -0.8441
vn 0.4065 0.8441 -0.3496
vn 0.9708 0.2216 -0.0918
vn 0.7570 -0.6037 0.2501
vn 0.0000 -0.9239 0.3827
vn -0.7570 -0.6037 0.2501
vn -0.9708 0.2216 -0.0918
vn -0.4065 0.8441 -0.3496
vn 0.4065 0.8441 0.3496
vn 0.9708 0.2216 0.0918
vn 0.7570 -0.6037 -0.2500
vn 0.0000 -0.9239 -0.3827
vn -0.7570 -0.6037 -0.2501
vn -0.9708 0.2216 0.0918
vn -0.4065 0.8441 0.3496
vn 0.4065 0.3496 0.8441
vn 0.9708 0.0918 0.2216
vn 0.7570 -0.2501 -0.6037
vn 0.0000 -0.3827 -0.9239
vn -0.7570 -0.2501 -0.6037
vn -0.9708 0.0918 0.2216
vn -0.4065 0.3496 0.8441
vn 0.4065 -0.3496 0.8441
vn 0.9708 -0.0918 0.2216
vn 0.7570 0.2501 -0.6037
vn 0.0000 0.3827 -0.9239
vn -0.7570 0.2501 -0.6037
vn -0.9708 -0.0918 0.2216
vn -0.4065 -0.3496 0.8441
vn 0.4065 -0.8441 0.3496
vn 0.9708 -0.2216 0.0918
vn 0.7570 0.6037 -0.2501
vn 0.0000 0.9239 -0.3827
vn -0.7570 0.6037 -0.2501
vn -0.9708 -0.2216 0.0918
vn -0.4065 -0.8441 0.3496
vn -0.9770 -0.2135 0.0000
vn 0.9770 -0.2135 0.0000
vn 0.0000 -0.2135 0.9770
vn -0.9780 0.2039 -0.0446
vn -0.0446 0.2039 -0.9780
vn 0.0000 -0.9770 -0.2135
vn 0.9780 0.2039 0.0446
vn 0.2135 -0.9770 0.0000
vn 0.0446 0.2039 -0.9780
vn -0.0446 0.2039 0.9780
vn 0.0000 0.9770 -0.2135
vn 0.0000 0.9770 0.2135
vn 0.9780 0.2039 -0.0446
vn 0.2135 0.9770 0.0000
vn -0.9780 0.2039 0.0446
vn -0.2135 0.9770 0.0000
vn 0.0000 -0.9770 0.2135
vn 0.0446 0.2039 0.9780
usemtl None
s off
f 1//1 3//1 4//1 2//1
f 156//2 172//2 171//2 155//2
f 3//3 1//3 5//3 7//3
f 4//4 3//4 7//4 8//4
f 1//5 2//5 6//5 5//5
f 2//6 4//6 8//6 6//6
f 10//6 12//6 16//6 14//6
f 155//2 171//2 170//2 154//2
f 154//2 170//2 169//2 153//2
f 179//7 180//7 196//7 195//7
f 14//1 16//1 20//1 18//1
f 11//3 9//3 13//3 15//3
f 12//4 11//4 15//4 16//4
f 9//5 10//5 14//5 13//5
f 20//4 19//4 23//4 24//4
f 15//1 13//1 17//1 19//1
f 16//1 15//1 19//1 20//1
f 13//1 14//1 18//1 17//1
f 22//5 24//5 28//5 26//5
f 17//5 18//5 22//5 21//5
f 18//6 20//6 24//6 22//6
f 19//3 17//3 21//3 23//3
f 27//8 25//8 29//8 31//8
f 23//5 21//5 25//5 27//5
f 24//5 23//5 27//5 28//5
f 21//5 22//5 26//5 25//5
f 29//9 30//9 32//9 31//9
f 28//10 27//10 31//10 32//10
f 25//11 26//11 30//11 29//11
f 26//12 28//12 32//12 30//12
f 33//13 40//13 41//13 34//13
f 34//14 41//14 42//14 35//14
f 35//15 42//15 43//15 36//15
f 36//16 43//16 44//16 37//16
f 37//17 44//17 45//17 38//17
f 38//18 45//18 46//18 39//18
f 39//19 46//19 40//19 33//19
f 40//20 47//20 48//20 41//20
f 41//21 48//21 49//21 42//21
f 42//22 49//22 50//22 43//22
f 43//23 50//23 51//23 44//23
f 44//24 51//24 52//24 45//24
f 45//25 52//25 53//25 46//25
f 46//26 53//26 47//26 40//26
f 47//27 54//27 55//27 48//27
f 48//28 55//28 56//28 49//28
f 49//29 56//29 57//29 50//29
f 50//30 57//30 58//30 51//30
f 51//31 58//31 59//31 52//31
f 52//32 59//32 60//32 53//32
f 53//33 60//33 54//33 47//33
f 54//34 61//34 62//34 55//34
f 55//35 62//35 63//35 56//35
f 56//36 63//36 64//36 57//36
f 57//37 64//37 65//37 58//37
f 58//38 65//38 66//38 59//38
f 59//39 66//39 67//39 60//39
f 60//40 67//40 61//40 54//40
f 61//41 68//41 69//41 62//41
f 62//42 69//42 70//42 63//42
f 63//43 70//43 71//43 64//43
f 64//44 71//44 72//44 65//44
f 65//45 72//45 73//45 66//45
f 66//46 73//46 74//46 67//46
f 67//47 74//47 68//47 61//47
f 68//48 75//48 76//48 69//48
f 69//49 76//49 77//49 70//49
f 70//50 77//50 78//50 71//50
f 71//51 78//51 79//51 72//51
f 72//52 79//52 80//52 73//52
f 73//53 80//53 81//53 74//53
f 74//54 81//54 75//54 68//54
f 75//55 82//55 83//55 76//55
f 76//56 83//56 84//56 77//56
f 77//57 84//57 85//57 78//57
f 78//58 85//58 86//58 79//58
f 79//59 86//59 87//59 80//59
f 80//60 87//60 88//60 81//60
f 81//61 88//61 82//61 75//61
f 82//62 33//62 34//62 83//62
f 83//63 34//63 35//63 84//63
f 84//64 35//64 36//64 85//64
f 85//65 36//65 37//65 86//65
f 86//66 37//66 38//66 87//66
f 87//67 38//67 39//67 88//67
f 88//68 39//68 33//68 82//68
f 89//69 96//69 97//69 90//69
f 90//70 97//70 98//70 91//70
f 91//71 98//71 99//71 92//71
f 92//72 99//72 100//72 93//72
f 93//73 100//73 101//73 94//73
f 94//74 101//74 102//74 95//74
f 95//75 102//75 96//75 89//75
f 96//76 103//76 104//76 97//76
f 97//77 104//77 105//77 98//77
f 98//78 105//78 106//78 99//78
f 99//79 106//79 107//79 100//79
f 100//80 107//80 108//80 101//80
f 101//81 108//81 109//81 102//81
f 102//82 109//82 103//82 96//82
f 103//83 110//83 111//83 104//83
f 104//84 111//84 112//84 105//84
f 105//85 112//85 113//85 106//85
f 106//86 113//86 114//86 107//86
f 107//87 114//87 115//87 108//87
f 108//88 115//88 116//88 109//88
f 109//89 116//89 110//89 103//89
f 110//90 117//90 118//90 111//90
f 111//91 118//91 119//91 112//91
f 112//92 119//92 120//92 113//92
f 113//93 120//93 121//93 114//93
f 114//94 121//94 122//94 115//94
f 115//95 122//95 123//95 116//95
f 116//96 123//96 117//96 110//96
f 117//97 124//97 125//97 118//97
f 118//98 125//98 126//98 119//98
f 119//99 126//99 127//99 120//99
f 120//100 127//100 128//100 121//100
f 121//101 128//101 129//101 122//101
f 122//102 129//102 130//102 123//102
f 123//103 130//103 124//103 117//103
f 124//104 131//104 132//104 125//104
f 125//105 132//105 133//105 126//105
f 126//106 133//106 134//106 127//106
f 127//107 134//107 135//107 128//107
f 128//108 135//108 136//108 129//108
f 129//109 136//109 137//109 130//109
f 130//110 137//110 131//110 124//110
f 131//111 138//111 139//111 132//111
f 132//112 139//112 140//112 133//112
f 133//113 140//113 141//113 134//113
f 134//114 141//114 142//114 135//114
f 135//115 142//115 143//115 136//115
f 136//116 143//116 144//116 137//116
f 137//117 144//117 138//117 131//117
f 138//118 89//118 90//118 139//118
f 139//119 90//119 91//119 140//119
f 140//120 91//120 92//120 141//120
f 141//121 92//121 93//121 142//121
f 142//122 93//122 94//122 143//122
f 143//123 94//123 95//123 144//123
f 144//124 95//124 89//124 138//124
f 145//3 146//3 148//3 147//3
f 147//4 148//4 152//4 151//4
f 151//6 152//6 150//6 149//6
f 149//5 150//5 146//5 145//5
f 147//1 151//1 149//1 145//1
f 152//9 148//9 146//9 150//9
f 198//125 197//125 199//125 200//125
f 7//5 154//5 153//5 8//5
f 11//5 155//5 154//5 7//5
f 12//5 156//5 155//5 11//5
f 8//5 153//5 156//5 12//5
f 194//126 193//126 195//126 196//126
f 6//5 158//5 157//5 5//5
f 10//5 159//5 158//5 6//5
f 9//5 160//5 159//5 10//5
f 5//5 157//5 160//5 9//5
f 190//127 189//127 191//127 192//127
f 8//5 162//5 161//5 6//5
f 12//5 163//5 162//5 8//5
f 10//5 164//5 163//5 12//5
f 6//5 161//5 164//5 10//5
f 186//2 185//2 187//2 188//2
f 5//5 166//5 165//5 7//5
f 9//5 167//5 166//5 5//5
f 11//5 168//5 167//5 9//5
f 7//5 165//5 168//5 11//5
f 153//2 169//2 172//2 156//2
f 172//128 169//128 186//128 188//128
f 158//127 174//127 173//127 157//127
f 159//127 175//127 174//127 158//127
f 160//127 176//127 175//127 159//127
f 157//127 173//127 176//127 160//127
f 182//129 183//129 199//129 197//129
f 162//126 178//126 177//126 161//126
f 163//126 179//126 178//126 162//126
f 164//126 180//126 179//126 163//126
f 161//126 177//126 180//126 164//126
f 175//130 176//130 192//130 191//130
f 166//125 182//125 181//125 165//125
f 167//125 183//125 182//125 166//125
f 168//125 184//125 183//125 167//125
f 165//125 181//125 184//125 168//125
f 176//131 173//131 190//131 192//131
f 183//132 184//132 200//132 199//132
f 180//133 177//133 194//133 196//133
f 184//134 181//134 198//134 200//134
f 169//135 170//135 185//135 186//135
f 173//136 174//136 189//136 190//136
f 170//137 171//137 187//137 185//137
f 177//138 178//138 193//138 194//138
f 174//139 175//139 191//139 189//139
f 181//140 182//140 197//140 198//140
f 171//141 172//141 188//141 187//141
f 178//142 179//142 195//142 193//142
